<svg xmlns="http://www.w3.org/2000/svg" viewBox="0 0 512 512">
  <defs>
    <linearGradient id="grad1" x1="0%" y1="0%" x2="100%" y2="100%">
      <stop offset="0%" style="stop-color:#6366F1;stop-opacity:1" />
      <stop offset="100%" style="stop-color:#8B5CF6;stop-opacity:1" />
    </linearGradient>
  </defs>
  <rect width="512" height="512" rx="50" fill="url(#grad1)" fill-opacity="0.1" />
  <g transform="translate(106, 106) scale(0.6)">
    <!-- Graph/Data Visualization -->
    <path d="M100,300 L100,100 L300,100 L300,300 L100,300 Z" fill="none" stroke="#6366F1" stroke-width="12" />
    <circle cx="150" cy="150" r="15" fill="#8B5CF6" />
    <circle cx="250" cy="150" r="15" fill="#8B5CF6" />
    <circle cx="150" cy="250" r="15" fill="#8B5CF6" />
    <circle cx="250" cy="250" r="15" fill="#8B5CF6" />
    <path d="M150,150 L250,150 L250,250 L150,250 Z" fill="none" stroke="#6366F1" stroke-width="6" stroke-dasharray="15,10" />
    
    <!-- Analytics Symbol -->
    <path d="M370,150 L400,150 L400,300 L370,300 Z" fill="#8B5CF6" />
    <path d="M430,200 L460,200 L460,300 L430,300 Z" fill="#8B5CF6" />
    <path d="M310,230 L340,230 L340,300 L310,300 Z" fill="#8B5CF6" />
    
    <!-- Circular Data Node -->
    <circle cx="385" cy="80" r="40" fill="none" stroke="#6366F1" stroke-width="12" />
    <circle cx="385" cy="80" r="20" fill="#8B5CF6" />
    
    <!-- Connecting Lines -->
    <path d="M300,200 L385,80" fill="none" stroke="#6366F1" stroke-width="6" stroke-dasharray="10,5" />
  </g>
</svg>