<svg xmlns="http://www.w3.org/2000/svg" viewBox="0 0 512 512">
  <defs>
    <linearGradient id="grad2" x1="0%" y1="0%" x2="100%" y2="100%">
      <stop offset="0%" style="stop-color:#10B981;stop-opacity:1" />
      <stop offset="100%" style="stop-color:#3B82F6;stop-opacity:1" />
    </linearGradient>
  </defs>
  <rect width="512" height="512" rx="50" fill="url(#grad2)" fill-opacity="0.1" />
  <g transform="translate(106, 106) scale(0.6)">
    <!-- Code Brackets -->
    <path d="M120,100 L80,200 L120,300" fill="none" stroke="#10B981" stroke-width="18" stroke-linecap="round" stroke-linejoin="round" />
    <path d="M280,100 L320,200 L280,300" fill="none" stroke="#10B981" stroke-width="18" stroke-linecap="round" stroke-linejoin="round" />
    
    <!-- Gear Symbol -->
    <circle cx="400" cy="200" r="60" fill="none" stroke="#3B82F6" stroke-width="12" />
    <circle cx="400" cy="200" r="25" fill="#3B82F6" />
    <path d="M400,140 L400,110" stroke="#3B82F6" stroke-width="15" stroke-linecap="round" />
    <path d="M400,290 L400,260" stroke="#3B82F6" stroke-width="15" stroke-linecap="round" />
    <path d="M460,200 L490,200" stroke="#3B82F6" stroke-width="15" stroke-linecap="round" />
    <path d="M310,200 L340,200" stroke="#3B82F6" stroke-width="15" stroke-linecap="round" />
    <path d="M442,242 L462,262" stroke="#3B82F6" stroke-width="15" stroke-linecap="round" />
    <path d="M338,158 L358,138" stroke="#3B82F6" stroke-width="15" stroke-linecap="round" />
    <path d="M442,158 L462,138" stroke="#3B82F6" stroke-width="15" stroke-linecap="round" />
    <path d="M338,242 L358,262" stroke="#3B82F6" stroke-width="15" stroke-linecap="round" />
    
    <!-- Code Line -->
    <path d="M150,180 L250,180" fill="none" stroke="#3B82F6" stroke-width="12" stroke-linecap="round" />
    <path d="M150,220 L230,220" fill="none" stroke="#3B82F6" stroke-width="12" stroke-linecap="round" />
    <path d="M150,260 L210,260" fill="none" stroke="#3B82F6" stroke-width="12" stroke-linecap="round" />
  </g>
</svg>